P2
10 10 9
2 2 7 2 7 4 9 4 7 2
4 2 7 2 7 4 9 4 7 2
7 2 7 2 7 4 9 4 7 2
9 2 7 2 7 4 9 4 7 2
9 2 7 2 7 4 9 4 7 2
4 2 7 2 7 4 9 4 7 2
7 2 7 2 7 4 9 4 7 2
9 2 7 2 7 4 9 4 7 2
9 2 7 2 7 4 9 4 7 2
7 2 7 2 7 4 9 4 7 2

